ffmpeg version 4.2.4-1ubuntu0.1 Copyright (c) 2000-2020 the FFmpeg developers
  built with gcc 9 (Ubuntu 9.3.0-10ubuntu2)
  configuration: --prefix=/usr --extra-version=1ubuntu0.1 --toolchain=hardened --libdir=/usr/lib/x86_64-linux-gnu --incdir=/usr/include/x86_64-linux-gnu --arch=amd64 --enable-gpl --disable-stripping --enable-avresample --disable-filter=resample --enable-avisynth --enable-gnutls --enable-ladspa --enable-libaom --enable-libass --enable-libbluray --enable-libbs2b --enable-libcaca --enable-libcdio --enable-libcodec2 --enable-libflite --enable-libfontconfig --enable-libfreetype --enable-libfribidi --enable-libgme --enable-libgsm --enable-libjack --enable-libmp3lame --enable-libmysofa --enable-libopenjpeg --enable-libopenmpt --enable-libopus --enable-libpulse --enable-librsvg --enable-librubberband --enable-libshine --enable-libsnappy --enable-libsoxr --enable-libspeex --enable-libssh --enable-libtheora --enable-libtwolame --enable-libvidstab --enable-libvorbis --enable-libvpx --enable-libwavpack --enable-libwebp --enable-libx265 --enable-libxml2 --enable-libxvid --enable-libzmq --enable-libzvbi --enable-lv2 --enable-omx --enable-openal --enable-opencl --enable-opengl --enable-sdl2 --enable-libdc1394 --enable-libdrm --enable-libiec61883 --enable-nvenc --enable-chromaprint --enable-frei0r --enable-libx264 --enable-shared
  WARNING: library configuration mismatch
  avcodec     configuration: --prefix=/usr --extra-version=1ubuntu0.1 --toolchain=hardened --libdir=/usr/lib/x86_64-linux-gnu --incdir=/usr/include/x86_64-linux-gnu --arch=amd64 --enable-gpl --disable-stripping --enable-avresample --disable-filter=resample --enable-avisynth --enable-gnutls --enable-ladspa --enable-libaom --enable-libass --enable-libbluray --enable-libbs2b --enable-libcaca --enable-libcdio --enable-libcodec2 --enable-libflite --enable-libfontconfig --enable-libfreetype --enable-libfribidi --enable-libgme --enable-libgsm --enable-libjack --enable-libmp3lame --enable-libmysofa --enable-libopenjpeg --enable-libopenmpt --enable-libopus --enable-libpulse --enable-librsvg --enable-librubberband --enable-libshine --enable-libsnappy --enable-libsoxr --enable-libspeex --enable-libssh --enable-libtheora --enable-libtwolame --enable-libvidstab --enable-libvorbis --enable-libvpx --enable-libwavpack --enable-libwebp --enable-libx265 --enable-libxml2 --enable-libxvid --enable-libzmq --enable-libzvbi --enable-lv2 --enable-omx --enable-openal --enable-opencl --enable-opengl --enable-sdl2 --enable-libdc1394 --enable-libdrm --enable-libiec61883 --enable-nvenc --enable-chromaprint --enable-frei0r --enable-libx264 --enable-shared --enable-version3 --disable-doc --disable-programs --enable-libaribb24 --enable-liblensfun --enable-libopencore_amrnb --enable-libopencore_amrwb --enable-libtesseract --enable-libvo_amrwbenc
  libavutil      56. 31.100 / 56. 31.100
  libavcodec     58. 54.100 / 58. 54.100
  libavformat    58. 29.100 / 58. 29.100
  libavdevice    58.  8.100 / 58.  8.100
  libavfilter     7. 57.100 /  7. 57.100
  libavresample   4.  0.  0 /  4.  0.  0
  libswscale      5.  5.100 /  5.  5.100
  libswresample   3.  5.100 /  3.  5.100
  libpostproc    55.  5.100 / 55.  5.100
Input #0, image2pipe, from 'pipe:':
  Duration: N/A, bitrate: N/A
    Stream #0:0: Video: ppm, rgb24, 600x600, 25 fps, 25 tbr, 25 tbn, 25 tbc
Stream mapping:
  Stream #0:0 -> #0:0 (ppm (native) -> h264 (libx264))
[libx264 @ 0x5555555dd680] using cpu capabilities: MMX2 SSE2Fast SSSE3 SSE4.2 AVX FMA3 BMI2 AVX2 AVX512
[libx264 @ 0x5555555dd680] profile High, level 3.0
Output #0, mpegts, to 'movie.mp4':
  Metadata:
    encoder         : Lavf58.29.100
    Stream #0:0: Video: h264 (libx264), yuv420p, 600x600, q=-1--1, 25 fps, 90k tbn, 25 tbc
    Metadata:
      encoder         : Lavc58.54.100 libx264
    Side data:
      cpb: bitrate max/min/avg: 0/0/0 buffer size: 0 vbv_delay: -1
frame=    7 fps=0.1 q=23.0 size=     183kB time=00:00:00.24 bitrate=6241.3kbits/s speed=0.00318x    frame=    8 fps=0.1 q=23.0 size=     192kB time=00:00:00.28 bitrate=5618.3kbits/s speed=0.00196x    frame=    9 fps=0.0 q=23.0 size=     200kB time=00:00:00.32 bitrate=5118.1kbits/s speed=0.00177x    frame=   10 fps=0.0 q=23.0 size=     208kB time=00:00:00.36 bitrate=4729.1kbits/s speed=0.00154x    frame=   11 fps=0.0 q=23.0 size=     216kB time=00:00:00.40 bitrate=4414.1kbits/s speed=0.00136x    frame=   12 fps=0.0 q=23.0 size=     224kB time=00:00:00.44 bitrate=4173.5kbits/s speed=0.00129x    frame=   13 fps=0.0 q=23.0 size=     231kB time=00:00:00.48 bitrate=3944.8kbits/s speed=0.00125x    frame=   14 fps=0.0 q=23.0 size=     239kB time=00:00:00.52 bitrate=3765.7kbits/s speed=0.00121x    frame=   15 fps=0.0 q=23.0 size=     246kB time=00:00:00.56 bitrate=3604.2kbits/s speed=0.00117x    frame=   16 fps=0.0 q=23.0 size=     254kB time=00:00:00.60 bitrate=3469.2kbits/s speed=0.00114x    frame=   17 fps=0.0 q=23.0 size=     256kB time=00:00:00.64 bitrate=3276.7kbits/s speed=0.00111x    frame=   18 fps=0.0 q=23.0 size=     256kB time=00:00:00.68 bitrate=3084.0kbits/s speed=0.0011x    frame=   19 fps=0.0 q=23.0 size=     256kB time=00:00:00.72 bitrate=2912.7kbits/s speed=0.00107x    frame=   20 fps=0.0 q=23.0 size=     256kB time=00:00:00.76 bitrate=2759.4kbits/s speed=0.00106x    frame=   21 fps=0.0 q=23.0 size=     256kB time=00:00:00.80 bitrate=2621.4kbits/s speed=0.00105x    frame=   22 fps=0.0 q=23.0 size=     256kB time=00:00:00.84 bitrate=2496.6kbits/s speed=0.00105x    frame=   23 fps=0.0 q=23.0 size=     256kB time=00:00:00.88 bitrate=2383.1kbits/s speed=0.00105x    frame=   24 fps=0.0 q=23.0 size=     256kB time=00:00:00.92 bitrate=2279.5kbits/s speed=0.00106x    frame=   25 fps=0.0 q=23.0 size=     256kB time=00:00:00.96 bitrate=2184.5kbits/s speed=0.00106x    frame=   26 fps=0.0 q=23.0 size=     256kB time=00:00:01.00 bitrate=2097.1kbits/s speed=0.00106x    frame=   27 fps=0.0 q=23.0 size=     256kB time=00:00:01.04 bitrate=2016.5kbits/s speed=0.00106x    frame=   28 fps=0.0 q=23.0 size=     256kB time=00:00:01.08 bitrate=1941.8kbits/s speed=0.00105x    frame=   29 fps=0.0 q=23.0 size=     256kB time=00:00:01.12 bitrate=1872.4kbits/s speed=0.00105x    frame=   30 fps=0.0 q=23.0 size=     256kB time=00:00:01.16 bitrate=1807.9kbits/s speed=0.00105x    frame=   31 fps=0.0 q=23.0 size=     256kB time=00:00:01.20 bitrate=1747.6kbits/s speed=0.00105x    frame=   32 fps=0.0 q=23.0 size=     256kB time=00:00:01.24 bitrate=1691.2kbits/s speed=0.00106x    frame=   33 fps=0.0 q=23.0 size=     256kB time=00:00:01.28 bitrate=1638.4kbits/s speed=0.00106x    frame=   34 fps=0.0 q=23.0 size=     256kB time=00:00:01.32 bitrate=1588.7kbits/s speed=0.00106x    frame=   35 fps=0.0 q=23.0 size=     256kB time=00:00:01.36 bitrate=1542.0kbits/s speed=0.00106x    frame=   36 fps=0.0 q=23.0 size=     256kB time=00:00:01.40 bitrate=1498.0kbits/s speed=0.00106x    frame=   37 fps=0.0 q=23.0 size=     256kB time=00:00:01.44 bitrate=1456.3kbits/s speed=0.00107x    frame=   38 fps=0.0 q=23.0 size=     256kB time=00:00:01.48 bitrate=1417.0kbits/s speed=0.00107x    frame=   39 fps=0.0 q=23.0 size=     256kB time=00:00:01.52 bitrate=1379.7kbits/s speed=0.00107x    frame=   40 fps=0.0 q=23.0 size=     256kB time=00:00:01.56 bitrate=1344.3kbits/s speed=0.00107x    frame=   41 fps=0.0 q=23.0 size=     256kB time=00:00:01.60 bitrate=1310.7kbits/s speed=0.00108x    frame=   42 fps=0.0 q=23.0 size=     256kB time=00:00:01.64 bitrate=1278.7kbits/s speed=0.00108x    frame=   43 fps=0.0 q=23.0 size=     256kB time=00:00:01.68 bitrate=1248.3kbits/s speed=0.00109x    frame=   44 fps=0.0 q=23.0 size=     256kB time=00:00:01.72 bitrate=1219.3kbits/s speed=0.00109x    frame=   45 fps=0.0 q=23.0 size=     256kB time=00:00:01.76 bitrate=1191.6kbits/s speed=0.0011x    frame=   46 fps=0.0 q=23.0 size=     256kB time=00:00:01.80 bitrate=1165.1kbits/s speed=0.0011x    frame=   47 fps=0.0 q=23.0 size=     256kB time=00:00:01.84 bitrate=1139.7kbits/s speed=0.0011x    frame=   48 fps=0.0 q=23.0 size=     256kB time=00:00:01.88 bitrate=1115.5kbits/s speed=0.0011x    frame=   49 fps=0.0 q=23.0 size=     512kB time=00:00:01.92 bitrate=2184.5kbits/s speed=0.00111x    frame=   50 fps=0.0 q=23.0 size=     512kB time=00:00:01.96 bitrate=2139.9kbits/s speed=0.00111x    frame=   51 fps=0.0 q=23.0 size=     512kB time=00:00:02.00 bitrate=2097.1kbits/s speed=0.00111x    frame=   52 fps=0.0 q=23.0 size=     512kB time=00:00:02.04 bitrate=2056.0kbits/s speed=0.00112x    frame=   53 fps=0.0 q=23.0 size=     512kB time=00:00:02.08 bitrate=2016.5kbits/s speed=0.00112x    frame=   54 fps=0.0 q=23.0 size=     512kB time=00:00:02.12 bitrate=1978.4kbits/s speed=0.00112x    frame=   55 fps=0.0 q=23.0 size=     512kB time=00:00:02.16 bitrate=1941.8kbits/s speed=0.00112x    frame=   56 fps=0.0 q=23.0 size=     512kB time=00:00:02.20 bitrate=1906.5kbits/s speed=0.00113x    frame=   57 fps=0.0 q=23.0 size=     512kB time=00:00:02.24 bitrate=1872.4kbits/s speed=0.00113x    frame=   58 fps=0.0 q=23.0 size=     512kB time=00:00:02.28 bitrate=1839.6kbits/s speed=0.00113x    frame=   59 fps=0.0 q=23.0 size=     512kB time=00:00:02.32 bitrate=1807.9kbits/s speed=0.00114x    frame=   60 fps=0.0 q=23.0 size=     512kB time=00:00:02.36 bitrate=1777.2kbits/s speed=0.00114x    frame=   61 fps=0.0 q=23.0 size=     512kB time=00:00:02.40 bitrate=1747.6kbits/s speed=0.00114x    frame=   62 fps=0.0 q=23.0 size=     512kB time=00:00:02.44 bitrate=1719.0kbits/s speed=0.00115x    frame=   63 fps=0.0 q=23.0 size=     512kB time=00:00:02.48 bitrate=1691.2kbits/s speed=0.00115x    frame=   64 fps=0.0 q=23.0 size=     512kB time=00:00:02.52 bitrate=1664.4kbits/s speed=0.00115x    frame=   65 fps=0.0 q=23.0 size=     512kB time=00:00:02.56 bitrate=1638.4kbits/s speed=0.00114x    frame=   66 fps=0.0 q=23.0 size=     512kB time=00:00:02.60 bitrate=1613.2kbits/s speed=0.00114x    frame=   67 fps=0.0 q=23.0 size=     512kB time=00:00:02.64 bitrate=1588.7kbits/s speed=0.00114x    frame=   68 fps=0.0 q=23.0 size=     512kB time=00:00:02.68 bitrate=1565.0kbits/s speed=0.00115x    frame=   69 fps=0.0 q=23.0 size=     512kB time=00:00:02.72 bitrate=1542.0kbits/s speed=0.00115x    frame=   70 fps=0.0 q=23.0 size=     512kB time=00:00:02.76 bitrate=1519.7kbits/s speed=0.00115x    frame=   71 fps=0.0 q=23.0 size=     512kB time=00:00:02.80 bitrate=1498.0kbits/s speed=0.00115x    frame=   72 fps=0.0 q=23.0 size=     512kB time=00:00:02.84 bitrate=1476.9kbits/s speed=0.00115x    frame=   73 fps=0.0 q=23.0 size=     512kB time=00:00:02.88 bitrate=1456.3kbits/s speed=0.00114x    frame=   74 fps=0.0 q=23.0 size=     512kB time=00:00:02.92 bitrate=1436.4kbits/s speed=0.00113x    frame=   75 fps=0.0 q=23.0 size=     512kB time=00:00:02.96 bitrate=1417.0kbits/s speed=0.00113x    frame=   76 fps=0.0 q=23.0 size=     512kB time=00:00:03.00 bitrate=1398.1kbits/s speed=0.00112x    frame=   77 fps=0.0 q=23.0 size=     512kB time=00:00:03.04 bitrate=1379.7kbits/s speed=0.00112x    frame=   78 fps=0.0 q=23.0 size=     512kB time=00:00:03.08 bitrate=1361.8kbits/s speed=0.00111x    frame=   79 fps=0.0 q=23.0 size=     512kB time=00:00:03.12 bitrate=1344.3kbits/s speed=0.00111x    frame=   80 fps=0.0 q=23.0 size=     512kB time=00:00:03.16 bitrate=1327.3kbits/s speed=0.00111x    frame=   81 fps=0.0 q=23.0 size=     512kB time=00:00:03.20 bitrate=1310.7kbits/s speed=0.0011x    frame=   82 fps=0.0 q=23.0 size=     512kB time=00:00:03.24 bitrate=1294.5kbits/s speed=0.0011x    frame=   83 fps=0.0 q=23.0 size=     768kB time=00:00:03.28 bitrate=1918.1kbits/s speed=0.00109x    frame=   84 fps=0.0 q=23.0 size=     768kB time=00:00:03.32 bitrate=1895.0kbits/s speed=0.00108x    frame=   85 fps=0.0 q=23.0 size=     768kB time=00:00:03.36 bitrate=1872.5kbits/s speed=0.00108x    frame=   86 fps=0.0 q=23.0 size=     768kB time=00:00:03.40 bitrate=1850.4kbits/s speed=0.00107x    frame=   87 fps=0.0 q=23.0 size=     768kB time=00:00:03.44 bitrate=1828.9kbits/s speed=0.00107x    frame=   88 fps=0.0 q=23.0 size=     768kB time=00:00:03.48 bitrate=1807.9kbits/s speed=0.00106x    frame=   89 fps=0.0 q=23.0 size=     768kB time=00:00:03.52 bitrate=1787.3kbits/s speed=0.00106x    frame=   90 fps=0.0 q=23.0 size=     768kB time=00:00:03.56 bitrate=1767.3kbits/s speed=0.00105x    frame=   91 fps=0.0 q=23.0 size=     768kB time=00:00:03.60 bitrate=1747.6kbits/s speed=0.00105x    frame=   92 fps=0.0 q=23.0 size=     768kB time=00:00:03.64 bitrate=1728.4kbits/s speed=0.00105x    frame=   93 fps=0.0 q=23.0 size=     768kB time=00:00:03.68 bitrate=1709.6kbits/s speed=0.00104x    frame=   94 fps=0.0 q=23.0 size=     768kB time=00:00:03.72 bitrate=1691.2kbits/s speed=0.00104x    frame=   95 fps=0.0 q=23.0 size=     768kB time=00:00:03.76 bitrate=1673.3kbits/s speed=0.00103x    frame=   96 fps=0.0 q=23.0 size=     768kB time=00:00:03.80 bitrate=1655.6kbits/s speed=0.00103x    frame=   97 fps=0.0 q=22.0 size=     768kB time=00:00:03.84 bitrate=1638.4kbits/s speed=0.00102x    frame=   98 fps=0.0 q=23.0 size=     768kB time=00:00:03.88 bitrate=1621.5kbits/s speed=0.00101x    frame=   99 fps=0.0 q=23.0 size=     768kB time=00:00:03.92 bitrate=1605.0kbits/s speed=0.001x    frame=  100 fps=0.0 q=23.0 size=     768kB time=00:00:03.96 bitrate=1588.7kbits/s speed=0.000998x    frame=  101 fps=0.0 q=22.0 size=     768kB time=00:00:04.00 bitrate=1572.9kbits/s speed=0.000993x    frame=  102 fps=0.0 q=22.0 size=     768kB time=00:00:04.04 bitrate=1557.3kbits/s speed=0.000988x    frame=  103 fps=0.0 q=23.0 size=     768kB time=00:00:04.08 bitrate=1542.0kbits/s speed=0.000984x    frame=  104 fps=0.0 q=23.0 size=     768kB time=00:00:04.12 bitrate=1527.0kbits/s speed=0.000981x    frame=  105 fps=0.0 q=23.0 size=     768kB time=00:00:04.16 bitrate=1512.4kbits/s speed=0.000978x    frame=  106 fps=0.0 q=23.0 size=     768kB time=00:00:04.20 bitrate=1498.0kbits/s speed=0.000974x    frame=  107 fps=0.0 q=22.0 size=     768kB time=00:00:04.24 bitrate=1483.8kbits/s speed=0.000971x    frame=  108 fps=0.0 q=22.0 size=     768kB time=00:00:04.28 bitrate=1470.0kbits/s speed=0.000969x    frame=  109 fps=0.0 q=22.0 size=     768kB time=00:00:04.32 bitrate=1456.4kbits/s speed=0.000967x    frame=  110 fps=0.0 q=22.0 size=     768kB time=00:00:04.36 bitrate=1443.0kbits/s speed=0.000966x    frame=  111 fps=0.0 q=22.0 size=     768kB time=00:00:04.40 bitrate=1429.9kbits/s speed=0.000965x    frame=  112 fps=0.0 q=22.0 size=     768kB time=00:00:04.44 bitrate=1417.0kbits/s speed=0.000964x    frame=  113 fps=0.0 q=23.0 size=     768kB time=00:00:04.48 bitrate=1404.3kbits/s speed=0.000963x    frame=  114 fps=0.0 q=23.0 size=     768kB time=00:00:04.52 bitrate=1391.9kbits/s speed=0.000962x    frame=  115 fps=0.0 q=22.0 size=     768kB time=00:00:04.56 bitrate=1379.7kbits/s speed=0.000962x    frame=  116 fps=0.0 q=22.0 size=     768kB time=00:00:04.60 bitrate=1367.7kbits/s speed=0.000961x    frame=  117 fps=0.0 q=22.0 size=     768kB time=00:00:04.64 bitrate=1355.9kbits/s speed=0.000961x    frame=  118 fps=0.0 q=22.0 size=     768kB time=00:00:04.68 bitrate=1344.3kbits/s speed=0.000961x    frame=  119 fps=0.0 q=22.0 size=     768kB time=00:00:04.72 bitrate=1332.9kbits/s speed=0.000961x    frame=  120 fps=0.0 q=22.0 size=    1024kB time=00:00:04.76 bitrate=1762.3kbits/s speed=0.000961x    frame=  121 fps=0.0 q=22.0 size=    1024kB time=00:00:04.80 bitrate=1747.6kbits/s speed=0.000961x    frame=  122 fps=0.0 q=22.0 size=    1024kB time=00:00:04.84 bitrate=1733.2kbits/s speed=0.00096x    frame=  123 fps=0.0 q=22.0 size=    1024kB time=00:00:04.88 bitrate=1719.0kbits/s speed=0.000959x    frame=  124 fps=0.0 q=22.0 size=    1024kB time=00:00:04.92 bitrate=1705.0kbits/s speed=0.000958x    frame=  125 fps=0.0 q=22.0 size=    1024kB time=00:00:04.96 bitrate=1691.2kbits/s speed=0.000958x    frame=  126 fps=0.0 q=22.0 size=    1024kB time=00:00:05.00 bitrate=1677.7kbits/s speed=0.000959x    frame=  127 fps=0.0 q=22.0 size=    1024kB time=00:00:05.04 bitrate=1664.4kbits/s speed=0.000959x    frame=  128 fps=0.0 q=22.0 size=    1024kB time=00:00:05.08 bitrate=1651.3kbits/s speed=0.000958x    frame=  129 fps=0.0 q=22.0 size=    1024kB time=00:00:05.12 bitrate=1638.4kbits/s speed=0.000957x    frame=  130 fps=0.0 q=22.0 size=    1024kB time=00:00:05.16 bitrate=1625.7kbits/s speed=0.000957x    frame=  131 fps=0.0 q=22.0 size=    1024kB time=00:00:05.20 bitrate=1613.2kbits/s speed=0.000956x    frame=  132 fps=0.0 q=22.0 size=    1024kB time=00:00:05.24 bitrate=1600.9kbits/s speed=0.000956x    frame=  133 fps=0.0 q=22.0 size=    1024kB time=00:00:05.28 bitrate=1588.7kbits/s speed=0.000956x    frame=  134 fps=0.0 q=22.0 size=    1024kB time=00:00:05.32 bitrate=1576.8kbits/s speed=0.000957x    frame=  135 fps=0.0 q=22.0 size=    1024kB time=00:00:05.36 bitrate=1565.0kbits/s speed=0.000956x    frame=  136 fps=0.0 q=22.0 size=    1024kB time=00:00:05.40 bitrate=1553.4kbits/s speed=0.000956x    frame=  137 fps=0.0 q=22.0 size=    1024kB time=00:00:05.44 bitrate=1542.0kbits/s speed=0.000957x    frame=  138 fps=0.0 q=22.0 size=    1024kB time=00:00:05.48 bitrate=1530.8kbits/s speed=0.000958x    frame=  139 fps=0.0 q=22.0 size=    1024kB time=00:00:05.52 bitrate=1519.7kbits/s speed=0.000958x    frame=  140 fps=0.0 q=22.0 size=    1024kB time=00:00:05.56 bitrate=1508.7kbits/s speed=0.000959x    frame=  141 fps=0.0 q=22.0 size=    1024kB time=00:00:05.60 bitrate=1498.0kbits/s speed=0.000959x    frame=  142 fps=0.0 q=22.0 size=    1024kB time=00:00:05.64 bitrate=1487.3kbits/s speed=0.000959x    frame=  143 fps=0.0 q=22.0 size=    1024kB time=00:00:05.68 bitrate=1476.9kbits/s speed=0.00096x    frame=  144 fps=0.0 q=22.0 size=    1024kB time=00:00:05.72 bitrate=1466.5kbits/s speed=0.000961x    frame=  145 fps=0.0 q=22.0 size=    1024kB time=00:00:05.76 bitrate=1456.4kbits/s speed=0.000962x    frame=  146 fps=0.0 q=22.0 size=    1024kB time=00:00:05.80 bitrate=1446.3kbits/s speed=0.000963x    frame=  147 fps=0.0 q=22.0 size=    1024kB time=00:00:05.84 bitrate=1436.4kbits/s speed=0.000964x    frame=  148 fps=0.0 q=22.0 size=    1024kB time=00:00:05.88 bitrate=1426.6kbits/s speed=0.000965x    frame=  149 fps=0.0 q=22.0 size=    1024kB time=00:00:05.92 bitrate=1417.0kbits/s speed=0.000967x    frame=  150 fps=0.0 q=22.0 size=    1024kB time=00:00:05.96 bitrate=1407.5kbits/s speed=0.000968x    frame=  151 fps=0.0 q=22.0 size=    1024kB time=00:00:06.00 bitrate=1398.1kbits/s speed=0.000969x    frame=  152 fps=0.0 q=22.0 size=    1024kB time=00:00:06.04 bitrate=1388.8kbits/s speed=0.00097x    frame=  153 fps=0.0 q=22.0 size=    1024kB time=00:00:06.08 bitrate=1379.7kbits/s speed=0.000971x    frame=  154 fps=0.0 q=22.0 size=    1024kB time=00:00:06.12 bitrate=1370.7kbits/s speed=0.000972x    frame=  155 fps=0.0 q=22.0 size=    1024kB time=00:00:06.16 bitrate=1361.8kbits/s speed=0.000974x    frame=  156 fps=0.0 q=22.0 size=    1024kB time=00:00:06.20 bitrate=1353.0kbits/s speed=0.000975x    frame=  157 fps=0.0 q=22.0 size=    1024kB time=00:00:06.24 bitrate=1344.3kbits/s speed=0.000977x    frame=  158 fps=0.0 q=22.0 size=    1024kB time=00:00:06.28 bitrate=1335.8kbits/s speed=0.000979x    frame=  159 fps=0.0 q=22.0 size=    1024kB time=00:00:06.32 bitrate=1327.3kbits/s speed=0.00098x    frame=  160 fps=0.0 q=22.0 size=    1024kB time=00:00:06.36 bitrate=1319.0kbits/s speed=0.000982x    frame=  161 fps=0.0 q=22.0 size=    1280kB time=00:00:06.40 bitrate=1638.4kbits/s speed=0.000984x    frame=  162 fps=0.0 q=22.0 size=    1280kB time=00:00:06.44 bitrate=1628.2kbits/s speed=0.000985x    frame=  163 fps=0.0 q=22.0 size=    1280kB time=00:00:06.48 bitrate=1618.2kbits/s speed=0.000987x    frame=  164 fps=0.0 q=22.0 size=    1280kB time=00:00:06.52 bitrate=1608.2kbits/s speed=0.000988x    frame=  165 fps=0.0 q=22.0 size=    1280kB time=00:00:06.56 bitrate=1598.4kbits/s speed=0.000989x    frame=  166 fps=0.0 q=22.0 size=    1280kB time=00:00:06.60 bitrate=1588.7kbits/s speed=0.000991x    frame=  167 fps=0.0 q=22.0 size=    1280kB time=00:00:06.64 bitrate=1579.2kbits/s speed=0.000992x    frame=  168 fps=0.0 q=22.0 size=    1280kB time=00:00:06.68 bitrate=1569.7kbits/s speed=0.000993x    frame=  169 fps=0.0 q=22.0 size=    1280kB time=00:00:06.72 bitrate=1560.4kbits/s speed=0.000994x    frame=  170 fps=0.0 q=22.0 size=    1280kB time=00:00:06.76 bitrate=1551.1kbits/s speed=0.000995x    frame=  171 fps=0.0 q=22.0 size=    1280kB time=00:00:06.80 bitrate=1542.0kbits/s speed=0.000996x    frame=  172 fps=0.0 q=22.0 size=    1280kB time=00:00:06.84 bitrate=1533.0kbits/s speed=0.000996x    frame=  173 fps=0.0 q=22.0 size=    1280kB time=00:00:06.88 bitrate=1524.1kbits/s speed=0.000997x    frame=  174 fps=0.0 q=22.0 size=    1280kB time=00:00:06.92 bitrate=1515.3kbits/s speed=0.000997x    frame=  175 fps=0.0 q=22.0 size=    1280kB time=00:00:06.96 bitrate=1506.6kbits/s speed=0.000999x    frame=  176 fps=0.0 q=22.0 size=    1280kB time=00:00:07.00 bitrate=1498.0kbits/s speed=0.001x    frame=  177 fps=0.0 q=22.0 size=    1280kB time=00:00:07.04 bitrate=1489.5kbits/s speed=0.001x    frame=  178 fps=0.0 q=22.0 size=    1280kB time=00:00:07.08 bitrate=1481.0kbits/s speed=0.001x    frame=  179 fps=0.0 q=22.0 size=    1280kB time=00:00:07.12 bitrate=1472.7kbits/s speed=0.001x    frame=  180 fps=0.0 q=22.0 size=    1280kB time=00:00:07.16 bitrate=1464.5kbits/s speed=0.001x    frame=  181 fps=0.0 q=22.0 size=    1280kB time=00:00:07.20 bitrate=1456.4kbits/s speed=0.001x    frame=  182 fps=0.0 q=23.0 size=    1280kB time=00:00:07.24 bitrate=1448.3kbits/s speed=0.001x    frame=  183 fps=0.0 q=22.0 size=    1280kB time=00:00:07.28 bitrate=1440.3kbits/s speed=0.001x    frame=  184 fps=0.0 q=22.0 size=    1280kB time=00:00:07.32 bitrate=1432.5kbits/s speed=0.00101x    frame=  185 fps=0.0 q=22.0 size=    1280kB time=00:00:07.36 bitrate=1424.7kbits/s speed=0.00101x    frame=  186 fps=0.0 q=22.0 size=    1280kB time=00:00:07.40 bitrate=1417.0kbits/s speed=0.00101x    frame=  187 fps=0.0 q=22.0 size=    1280kB time=00:00:07.44 bitrate=1409.4kbits/s speed=0.00101x    frame=  188 fps=0.0 q=22.0 size=    1280kB time=00:00:07.48 bitrate=1401.8kbits/s speed=0.00101x    frame=  189 fps=0.0 q=22.0 size=    1280kB time=00:00:07.52 bitrate=1394.4kbits/s speed=0.00101x    frame=  190 fps=0.0 q=22.0 size=    1280kB time=00:00:07.56 bitrate=1387.0kbits/s speed=0.00101x    frame=  191 fps=0.0 q=22.0 size=    1280kB time=00:00:07.60 bitrate=1379.7kbits/s speed=0.00101x    frame=  192 fps=0.0 q=22.0 size=    1280kB time=00:00:07.64 bitrate=1372.5kbits/s speed=0.00101x    frame=  193 fps=0.0 q=22.0 size=    1280kB time=00:00:07.68 bitrate=1365.3kbits/s speed=0.00101x    frame=  194 fps=0.0 q=22.0 size=    1280kB time=00:00:07.72 bitrate=1358.3kbits/s speed=0.00101x    frame=  195 fps=0.0 q=22.0 size=    1280kB time=00:00:07.76 bitrate=1351.3kbits/s speed=0.00101x    frame=  196 fps=0.0 q=22.0 size=    1280kB time=00:00:07.80 bitrate=1344.3kbits/s speed=0.00101x    frame=  197 fps=0.0 q=22.0 size=    1280kB time=00:00:07.84 bitrate=1337.5kbits/s speed=0.00101x    frame=  198 fps=0.0 q=22.0 size=    1280kB time=00:00:07.88 bitrate=1330.7kbits/s speed=0.00101x    frame=  199 fps=0.0 q=22.0 size=    1280kB time=00:00:07.92 bitrate=1324.0kbits/s speed=0.00101x    frame=  200 fps=0.0 q=22.0 size=    1536kB time=00:00:07.96 bitrate=1580.8kbits/s speed=0.00102x    frame=  201 fps=0.0 q=22.0 size=    1536kB time=00:00:08.00 bitrate=1572.9kbits/s speed=0.00102x    frame=  202 fps=0.0 q=22.0 size=    1536kB time=00:00:08.04 bitrate=1565.0kbits/s speed=0.00102x    frame=  203 fps=0.0 q=22.0 size=    1536kB time=00:00:08.08 bitrate=1557.3kbits/s speed=0.00102x    frame=  204 fps=0.0 q=22.0 size=    1536kB time=00:00:08.12 bitrate=1549.6kbits/s speed=0.00102x    frame=  205 fps=0.0 q=22.0 size=    1536kB time=00:00:08.16 bitrate=1542.0kbits/s speed=0.00102x    frame=  206 fps=0.0 q=22.0 size=    1536kB time=00:00:08.20 bitrate=1534.5kbits/s speed=0.00102x    frame=  207 fps=0.0 q=22.0 size=    1536kB time=00:00:08.24 bitrate=1527.1kbits/s speed=0.00102x    frame=  208 fps=0.0 q=22.0 size=    1536kB time=00:00:08.28 bitrate=1519.7kbits/s speed=0.00102x    frame=  209 fps=0.0 q=22.0 size=    1536kB time=00:00:08.32 bitrate=1512.4kbits/s speed=0.00101x    frame=  210 fps=0.0 q=22.0 size=    1536kB time=00:00:08.36 bitrate=1505.1kbits/s speed=0.00101x    frame=  211 fps=0.0 q=22.0 size=    1536kB time=00:00:08.40 bitrate=1498.0kbits/s speed=0.00101x    frame=  212 fps=0.0 q=22.0 size=    1536kB time=00:00:08.44 bitrate=1490.9kbits/s speed=0.00101x    frame=  213 fps=0.0 q=22.0 size=    1536kB time=00:00:08.48 bitrate=1483.8kbits/s speed=0.00101x    frame=  214 fps=0.0 q=22.0 size=    1536kB time=00:00:08.52 bitrate=1476.9kbits/s speed=0.00101x    frame=  215 fps=0.0 q=22.0 size=    1536kB time=00:00:08.56 bitrate=1470.0kbits/s speed=0.00101x    frame=  216 fps=0.0 q=22.0 size=    1536kB time=00:00:08.60 bitrate=1463.1kbits/s speed=0.00102x    frame=  217 fps=0.0 q=22.0 size=    1536kB time=00:00:08.64 bitrate=1456.4kbits/s speed=0.00102x    frame=  218 fps=0.0 q=22.0 size=    1536kB time=00:00:08.68 bitrate=1449.6kbits/s speed=0.00102x    frame=  219 fps=0.0 q=22.0 size=    1536kB time=00:00:08.72 bitrate=1443.0kbits/s speed=0.00102x    frame=  220 fps=0.0 q=22.0 size=    1536kB time=00:00:08.76 bitrate=1436.4kbits/s speed=0.00102x    frame=  221 fps=0.0 q=22.0 size=    1536kB time=00:00:08.80 bitrate=1429.9kbits/s speed=0.00102x    frame=  222 fps=0.0 q=22.0 size=    1536kB time=00:00:08.84 bitrate=1423.4kbits/s speed=0.00102x    frame=  223 fps=0.0 q=22.0 size=    1536kB time=00:00:08.88 bitrate=1417.0kbits/s speed=0.00102x    frame=  224 fps=0.0 q=22.0 size=    1536kB time=00:00:08.92 bitrate=1410.6kbits/s speed=0.00102x    frame=  225 fps=0.0 q=22.0 size=    1536kB time=00:00:08.96 bitrate=1404.3kbits/s speed=0.00102x    frame=  226 fps=0.0 q=22.0 size=    1536kB time=00:00:09.00 bitrate=1398.1kbits/s speed=0.00102x    frame=  227 fps=0.0 q=22.0 size=    1536kB time=00:00:09.04 bitrate=1391.9kbits/s speed=0.00102x    frame=  228 fps=0.0 q=22.0 size=    1536kB time=00:00:09.08 bitrate=1385.8kbits/s speed=0.00102x    frame=  229 fps=0.0 q=21.0 size=    1536kB time=00:00:09.12 bitrate=1379.7kbits/s speed=0.00102x    frame=  230 fps=0.0 q=21.0 size=    1536kB time=00:00:09.16 bitrate=1373.7kbits/s speed=0.00102x    frame=  231 fps=0.0 q=21.0 size=    1536kB time=00:00:09.20 bitrate=1367.7kbits/s speed=0.00102x    frame=  232 fps=0.0 q=22.0 size=    1536kB time=00:00:09.24 bitrate=1361.8kbits/s speed=0.00102x    frame=  233 fps=0.0 q=22.0 size=    1536kB time=00:00:09.28 bitrate=1355.9kbits/s speed=0.00103x    frame=  234 fps=0.0 q=22.0 size=    1536kB time=00:00:09.32 bitrate=1350.1kbits/s speed=0.00103x    frame=  235 fps=0.0 q=22.0 size=    1536kB time=00:00:09.36 bitrate=1344.3kbits/s speed=0.00103x    frame=  236 fps=0.0 q=22.0 size=    1536kB time=00:00:09.40 bitrate=1338.6kbits/s speed=0.00103x    frame=  237 fps=0.0 q=22.0 size=    1536kB time=00:00:09.44 bitrate=1332.9kbits/s speed=0.00103x    frame=  238 fps=0.0 q=22.0 size=    1536kB time=00:00:09.48 bitrate=1327.3kbits/s speed=0.00103x    frame=  239 fps=0.0 q=22.0 size=    1536kB time=00:00:09.52 bitrate=1321.7kbits/s speed=0.00104x    frame=  240 fps=0.0 q=22.0 size=    1536kB time=00:00:09.56 bitrate=1316.2kbits/s speed=0.00104x    frame=  241 fps=0.0 q=22.0 size=    1536kB time=00:00:09.60 bitrate=1310.7kbits/s speed=0.00104x    frame=  242 fps=0.0 q=22.0 size=    1536kB time=00:00:09.64 bitrate=1305.3kbits/s speed=0.00104x    frame=  243 fps=0.0 q=22.0 size=    1536kB time=00:00:09.68 bitrate=1299.9kbits/s speed=0.00104x    frame=  244 fps=0.0 q=22.0 size=    1536kB time=00:00:09.72 bitrate=1294.5kbits/s speed=0.00104x    frame=  245 fps=0.0 q=22.0 size=    1536kB time=00:00:09.76 bitrate=1289.2kbits/s speed=0.00104x    frame=  246 fps=0.0 q=22.0 size=    1792kB time=00:00:09.80 bitrate=1498.0kbits/s speed=0.00105x    frame=  247 fps=0.0 q=21.0 size=    1792kB time=00:00:09.84 bitrate=1491.9kbits/s speed=0.00105x    frame=  248 fps=0.0 q=22.0 size=    1792kB time=00:00:09.88 bitrate=1485.8kbits/s speed=0.00105x    frame=  249 fps=0.0 q=22.0 size=    1792kB time=00:00:09.92 bitrate=1479.8kbits/s speed=0.00105x    frame=  250 fps=0.0 q=22.0 size=    1792kB time=00:00:09.96 bitrate=1473.9kbits/s speed=0.00105x    frame=  251 fps=0.0 q=19.0 size=    1792kB time=00:00:10.00 bitrate=1468.0kbits/s speed=0.00105x    frame=  252 fps=0.0 q=23.0 size=    1792kB time=00:00:10.04 bitrate=1462.2kbits/s speed=0.00105x    frame=  253 fps=0.0 q=22.0 size=    1792kB time=00:00:10.08 bitrate=1456.4kbits/s speed=0.00105x    Error while decoding stream #0:0: Invalid data found when processing input
frame=  253 fps=0.0 q=22.0 size=    1792kB time=00:00:10.08 bitrate=1456.4kbits/s speed=0.00105x    frame=  253 fps=0.0 q=22.0 Lsize=    1903kB time=00:00:10.08 bitrate=1546.4kbits/s speed=0.00104x    
video:1736kB audio:0kB subtitle:0kB other streams:0kB global headers:0kB muxing overhead: 9.617167%
[libx264 @ 0x5555555dd680] frame I:3     Avg QP:16.56  size: 55776
[libx264 @ 0x5555555dd680] frame P:250   Avg QP:20.93  size:  6441
[libx264 @ 0x5555555dd680] mb I  I16..4: 46.9% 23.0% 30.1%
[libx264 @ 0x5555555dd680] mb P  I16..4: 12.9% 14.4%  0.7%  P16..4: 26.3%  7.1%  5.1%  0.0%  0.0%    skip:33.5%
[libx264 @ 0x5555555dd680] 8x8 transform intra:50.3% inter:6.5%
[libx264 @ 0x5555555dd680] coded y,uvDC,uvAC intra: 4.8% 50.2% 29.9% inter: 9.3% 8.4% 0.2%
[libx264 @ 0x5555555dd680] i16 v,h,dc,p: 68%  5% 26%  1%
[libx264 @ 0x5555555dd680] i8 v,h,dc,ddl,ddr,vr,hd,vl,hu: 13%  7% 73%  1%  1%  1%  1%  1%  1%
[libx264 @ 0x5555555dd680] i4 v,h,dc,ddl,ddr,vr,hd,vl,hu: 35% 27% 27%  2%  2%  2%  2%  1%  2%
[libx264 @ 0x5555555dd680] i8c dc,h,v,p: 49% 31% 13%  6%
[libx264 @ 0x5555555dd680] Weighted P-Frames: Y:0.0% UV:0.0%
[libx264 @ 0x5555555dd680] ref P L0: 24.2%  2.5% 30.2% 14.9% 17.6% 10.6%
[libx264 @ 0x5555555dd680] kb/s:1405.13
Exiting normally, received signal 2.
/home/pmorelr/apps/basilisk/src/viscosity.h:41:error: [Thread debugging using libthread_db enabled]
/home/pmorelr/apps/basilisk/src/viscosity.h:41:error: Using host libthread_db library "/lib/x86_64-linux-gnu/libthread_db.so.1".
/home/pmorelr/apps/basilisk/src/viscosity.h:41:error: [New Thread 0x7ffff1180700 (LWP 3227884)]
/home/pmorelr/apps/basilisk/src/viscosity.h:41:error: [New Thread 0x7fffe897f700 (LWP 3227887)]
/home/pmorelr/apps/basilisk/src/viscosity.h:41:error: [New Thread 0x7ffff097f700 (LWP 3227889)]
/home/pmorelr/apps/basilisk/src/viscosity.h:41:error: [New Thread 0x7fffebfff700 (LWP 3227890)]
/home/pmorelr/apps/basilisk/src/viscosity.h:41:error: [New Thread 0x7fffeb7fe700 (LWP 3227892)]
/home/pmorelr/apps/basilisk/src/viscosity.h:41:error: [New Thread 0x7fffeaffd700 (LWP 3227893)]
/home/pmorelr/apps/basilisk/src/viscosity.h:41:error: [New Thread 0x7fffea7fc700 (LWP 3227895)]
/home/pmorelr/apps/basilisk/src/viscosity.h:41:error: [New Thread 0x7fffe9ffb700 (LWP 3227896)]
/home/pmorelr/apps/basilisk/src/viscosity.h:41:error: [New Thread 0x7fffe97fa700 (LWP 3227897)]
/home/pmorelr/apps/basilisk/src/viscosity.h:41:error: [New Thread 0x7fffcbfff700 (LWP 3227899)]
/home/pmorelr/apps/basilisk/src/viscosity.h:41:error: [New Thread 0x7fffcb7fe700 (LWP 3227901)]
/home/pmorelr/apps/basilisk/src/viscosity.h:41:error: [New Thread 0x7fffcaffd700 (LWP 3227902)]
/home/pmorelr/apps/basilisk/src/viscosity.h:41:error: [New Thread 0x7fffca7fc700 (LWP 3227904)]
/home/pmorelr/apps/basilisk/src/viscosity.h:41:error: [New Thread 0x7fffc9ffb700 (LWP 3227906)]
/home/pmorelr/apps/basilisk/src/viscosity.h:41:error: [New Thread 0x7fffc97fa700 (LWP 3227907)]
/home/pmorelr/apps/basilisk/src/viscosity.h:41:error: [New Thread 0x7fffc8ff9700 (LWP 3227909)]
/home/pmorelr/apps/basilisk/src/viscosity.h:41:error: [New Thread 0x7fffa7fff700 (LWP 3227947)]
/home/pmorelr/apps/basilisk/src/viscosity.h:41:error: [New Thread 0x7fffa77fe700 (LWP 3227949)]
/home/pmorelr/apps/basilisk/src/viscosity.h:41:error: [New Thread 0x7fffa6ffd700 (LWP 3227951)]
/home/pmorelr/apps/basilisk/src/viscosity.h:41:error: [New Thread 0x7fffa67fc700 (LWP 3227952)]
/home/pmorelr/apps/basilisk/src/viscosity.h:41:error: Thread 1 "boil9" received signal SIGINT, Interrupt.
